<svg width="28" height="28" viewBox="0 0 28 28" fill="none" xmlns="http://www.w3.org/2000/svg">
<path opacity="0.4" d="M17.2245 5.31994C16.5898 5.20269 16.0069 5.60775 15.886 6.22732C15.7652 6.84689 16.1715 7.45181 16.789 7.57306C18.648 7.93548 20.0834 9.37449 20.4473 11.2399V11.2412C20.5508 11.7782 21.0235 12.1686 21.568 12.1686C21.641 12.1686 21.714 12.1619 21.7884 12.1486C22.4059 12.0247 22.8122 11.4211 22.6913 10.8002C22.1483 8.01409 20.0037 5.86224 17.2245 5.31994" fill="#1777FB"/>
<path opacity="0.4" d="M17.1415 0.67726C16.844 0.634623 16.5452 0.722562 16.3076 0.911766C16.0632 1.10363 15.9105 1.38078 15.8773 1.69123C15.807 2.3188 16.2598 2.88641 16.8865 2.95703C21.2087 3.43936 24.5682 6.80638 25.0542 11.1421C25.1193 11.723 25.6066 12.1614 26.1882 12.1614C26.232 12.1614 26.2745 12.1587 26.3184 12.1534C26.6224 12.1201 26.8933 11.9695 27.0845 11.7297C27.2744 11.4898 27.3607 11.1914 27.3262 10.8862C26.7207 5.47663 22.5339 1.27818 17.1415 0.67726" fill="#1777FB"/>
<path d="M21.4732 17.5641C20.6088 17.3802 19.9249 17.7799 19.3194 18.129C18.6993 18.4888 17.5188 19.4415 16.8443 19.1963C13.3839 17.7786 10.1292 14.7607 8.72038 11.3017C8.47206 10.6128 9.42415 9.43099 9.78134 8.80742C10.1306 8.2025 10.5236 7.51364 10.3444 6.64757C10.1824 5.86811 8.08698 3.2126 7.34603 2.48643C6.85605 2.00676 6.35677 1.74294 5.84288 1.69897C3.91083 1.61769 1.75305 4.18526 1.37461 4.79951C0.425179 6.10927 0.431818 7.85208 1.39054 9.96529C3.70103 15.6414 12.4397 24.2075 18.1602 26.5952C19.2145 27.0869 20.1812 27.3334 21.0483 27.3334C21.8968 27.3334 22.6524 27.0975 23.3017 26.6298C23.7904 26.3487 26.4753 24.0929 26.4036 22.1169C26.3624 21.6133 26.0982 21.1096 25.6228 20.622C24.8978 19.8772 22.25 17.728 21.4732 17.5641" fill="#1777FB"/>
</svg>
