<svg width="28" height="28" viewBox="0 0 28 28" fill="none" xmlns="http://www.w3.org/2000/svg">
<path opacity="0.4" d="M20.219 27.3196H7.77967C5.85098 27.4395 3.95691 26.7708 2.5317 25.4682C1.22904 24.0417 0.560386 22.1476 0.680263 20.2203V7.77978C0.560386 5.85244 1.2277 3.9584 2.53037 2.53187C3.95691 1.22921 5.85098 0.56057 7.77967 0.680446H20.219C22.145 0.56057 24.0377 1.22788 25.4629 2.53054C26.7643 3.9584 27.4342 5.85111 27.3197 7.77978V20.2203C27.4382 22.1476 26.7709 24.0417 25.4683 25.4682C24.0417 26.7708 22.1476 27.4395 20.219 27.3196Z" fill="#1777FB"/>
<path d="M20.7392 11.8634L12.0022 20.6439C11.5478 21.0862 10.9506 21.3334 10.3275 21.3334H7.27667C7.1079 21.3334 6.95211 21.2683 6.83527 21.1512C6.71843 21.0342 6.6665 20.8781 6.6665 20.709L6.7444 17.626C6.75738 17.0147 7.00404 16.4423 7.43246 16.013L13.625 9.80815C13.7288 9.70409 13.9106 9.70409 14.0144 9.80815L16.1864 11.9714C16.3292 12.1132 16.5369 12.2055 16.7576 12.2055C17.2379 12.2055 17.6144 11.8153 17.6144 11.347C17.6144 11.1129 17.5235 10.9047 17.3807 10.7486C17.3418 10.6966 15.2737 8.63742 15.2737 8.63742C15.1439 8.50734 15.1439 8.2862 15.2737 8.15612L16.1435 7.27157C16.9484 6.46506 18.2466 6.46506 19.0515 7.27157L20.7392 8.96262C21.5311 9.75612 21.5311 11.0569 20.7392 11.8634Z" fill="#1777FB"/>
</svg>
