<svg width="28" height="24" viewBox="0 0 28 24" fill="none" xmlns="http://www.w3.org/2000/svg">
<path opacity="0.4" d="M26.3334 13.9685C25.2387 13.9685 24.3481 13.086 24.3481 12.0013C24.3481 10.9153 25.2387 10.0328 26.3334 10.0328C26.5987 10.0328 26.8534 9.92844 27.0401 9.74348C27.2281 9.55719 27.3334 9.30486 27.3334 9.04195L27.3321 5.4722C27.3321 2.4547 24.8534 0 21.8081 0H6.19208C3.14675 0 0.668081 2.4547 0.668081 5.4722L0.666748 9.15689C0.666748 9.4198 0.772081 9.67214 0.960081 9.85842C1.14675 10.0434 1.40141 10.1477 1.66675 10.1477C2.79875 10.1477 3.65208 10.9444 3.65208 12.0013C3.65208 13.086 2.76141 13.9685 1.66675 13.9685C1.11475 13.9685 0.666748 14.4124 0.666748 14.9594V18.5265C0.666748 21.544 3.14408 24 6.19075 24H21.8094C24.8561 24 27.3334 21.544 27.3334 18.5265V14.9594C27.3334 14.4124 26.8854 13.9685 26.3334 13.9685Z" fill="#1777FB"/>
<path d="M18.5741 11.4515L17.0021 12.9821L17.3741 15.1461C17.4381 15.5208 17.2874 15.8901 16.9794 16.1115C16.6741 16.3355 16.2754 16.3635 15.9394 16.1848L13.9994 15.1648L12.0554 16.1861C11.9114 16.2621 11.7541 16.3021 11.5981 16.3021C11.3941 16.3021 11.1928 16.2381 11.0194 16.1128C10.7128 15.8901 10.5621 15.5208 10.6261 15.1461L10.9968 12.9821L9.42478 11.4515C9.15278 11.1875 9.05811 10.7995 9.17544 10.4381C9.29411 10.0781 9.60078 9.82214 9.97544 9.76881L12.1434 9.45281L13.1154 7.48348C13.2848 7.14481 13.6234 6.93414 13.9994 6.93414H14.0021C14.3794 6.93548 14.7181 7.14614 14.8848 7.48481L15.8568 9.45281L18.0288 9.77014C18.3994 9.82214 18.7061 10.0781 18.8234 10.4381C18.9421 10.7995 18.8474 11.1875 18.5741 11.4515Z" fill="#1777FB"/>
</svg>
