<svg width="585" height="80" viewBox="0 0 585 80" fill="none" xmlns="http://www.w3.org/2000/svg">
<g clip-path="url(#clip0_340_686)">
<path d="M0 20C0 8.95431 8.95431 0 20 0H565C576.046 0 585 8.95431 585 20V80H0V20Z" fill="url(#paint0_linear_340_686)"/>
<circle cx="41.5" cy="96.5" r="62.5" stroke="url(#paint1_linear_340_686)" stroke-opacity="0.22" stroke-width="20"/>
<path d="M593 21.5C593 53.6345 565.095 81 529 81C492.905 81 465 53.6345 465 21.5C465 -10.6345 492.905 -38 529 -38C565.095 -38 593 -10.6345 593 21.5Z" stroke="url(#paint2_linear_340_686)" stroke-opacity="0.22" stroke-width="26"/>
<circle cx="292" cy="105" r="103" stroke="url(#paint3_linear_340_686)" stroke-opacity="0.22" stroke-width="40"/>
</g>
<defs>
<linearGradient id="paint0_linear_340_686" x1="64.7336" y1="80" x2="66.5444" y2="0.434661" gradientUnits="userSpaceOnUse">
<stop stop-color="#1777FB"/>
<stop offset="1" stop-color="#4795FF"/>
</linearGradient>
<linearGradient id="paint1_linear_340_686" x1="41.5" y1="-21.2743" x2="41.5" y2="169" gradientUnits="userSpaceOnUse">
<stop stop-color="white"/>
<stop offset="1" stop-color="white" stop-opacity="0"/>
</linearGradient>
<linearGradient id="paint2_linear_340_686" x1="529" y1="-96.2743" x2="529" y2="94" gradientUnits="userSpaceOnUse">
<stop stop-color="white"/>
<stop offset="1" stop-color="white" stop-opacity="0"/>
</linearGradient>
<linearGradient id="paint3_linear_340_686" x1="292" y1="-94.8101" x2="292" y2="228" gradientUnits="userSpaceOnUse">
<stop stop-color="white"/>
<stop offset="1" stop-color="white" stop-opacity="0"/>
</linearGradient>
<clipPath id="clip0_340_686">
<path d="M0 20C0 8.95431 8.95431 0 20 0H565C576.046 0 585 8.95431 585 20V80H0V20Z" fill="white"/>
</clipPath>
</defs>
</svg>
