<svg width="22" height="26" viewBox="0 0 22 26" fill="none" xmlns="http://www.w3.org/2000/svg">
<path opacity="0.4" d="M11.1081 25.5C10.9533 25.5 10.7985 25.4645 10.6589 25.3921L6.15749 23.062C4.88019 22.4001 3.88101 21.6573 3.10079 20.7919C1.39311 18.8994 0.443002 16.47 0.427901 13.9499L0.375048 5.65533C0.368756 4.69803 0.98664 3.83879 1.91032 3.51519L10.1756 0.633485C10.6664 0.458205 11.2138 0.455753 11.7134 0.624905L20.0102 3.40855C20.9389 3.71866 21.5669 4.57178 21.5719 5.52785L21.6247 13.8285C21.6411 16.345 20.7237 18.7842 19.0425 20.6976C18.271 21.5752 17.2807 22.329 16.016 23.0032L11.5549 25.386C11.4164 25.4608 11.2629 25.4988 11.1081 25.5Z" fill="white"/>
<path d="M10.1491 15.9011C9.90746 15.9024 9.66585 15.8153 9.4796 15.6364L7.08357 13.332C6.71359 12.9741 6.70982 12.3931 7.07602 12.0327C7.44222 11.6711 8.03997 11.6674 8.4112 12.0241L10.1352 13.6813L14.3447 9.53099C14.7121 9.1694 15.3099 9.16572 15.6798 9.52241C16.0511 9.88032 16.0548 10.4625 15.6886 10.8217L10.8148 15.6278C10.6311 15.8092 10.3907 15.8999 10.1491 15.9011Z" fill="white"/>
</svg>
