<svg width="26" height="24" viewBox="0 0 26 24" fill="none" xmlns="http://www.w3.org/2000/svg">
<path opacity="0.4" d="M14.2204 0.892018L17.0035 6.48486C17.2085 6.89007 17.5999 7.17146 18.0512 7.23399L24.3025 8.14445C24.6676 8.19573 24.9989 8.38833 25.2227 8.68223C25.444 8.97238 25.5391 9.34006 25.4853 9.7015C25.4415 10.0016 25.3003 10.2793 25.084 10.4919L20.5542 14.8829C20.2229 15.1893 20.0729 15.6433 20.1529 16.0872L21.2681 22.2604C21.3869 23.0058 20.8931 23.7086 20.1529 23.8499C19.8478 23.8987 19.5353 23.8474 19.2602 23.7074L13.684 20.8021C13.2702 20.5933 12.7813 20.5933 12.3675 20.8021L6.79128 23.7074C6.10614 24.0713 5.2572 23.8237 4.87587 23.1483C4.73459 22.8794 4.68458 22.573 4.73084 22.2741L5.84608 16.0998C5.9261 15.657 5.77481 15.2005 5.44474 14.8941L0.915021 10.5057C0.376155 9.98539 0.359902 9.12871 0.878763 8.58968C0.890016 8.57843 0.902518 8.56592 0.915021 8.55341C1.13007 8.33455 1.41263 8.19573 1.71769 8.15946L7.96903 7.24775C8.41913 7.18397 8.81047 6.90508 9.01676 6.49737L11.6998 0.892018C11.9386 0.411773 12.4337 0.112871 12.9714 0.125378H13.1389C13.6052 0.181656 14.0116 0.470553 14.2204 0.892018Z" fill="white"/>
</svg>
