<svg width="26" height="26" viewBox="0 0 26 26" fill="none" xmlns="http://www.w3.org/2000/svg">
<path opacity="0.4" d="M25.4995 12.9998C25.4995 19.9048 19.9033 25.4998 12.9995 25.4998C6.09576 25.4998 0.499512 19.9048 0.499512 12.9998C0.499512 6.09726 6.09576 0.499756 12.9995 0.499756C19.9033 0.499756 25.4995 6.09726 25.4995 12.9998Z" fill="white"/>
<path d="M17.4668 17.768C17.303 17.768 17.138 17.7255 16.9868 17.6367L12.0793 14.7092C11.7968 14.5392 11.623 14.233 11.623 13.903V7.59424C11.623 7.07674 12.043 6.65674 12.5605 6.65674C13.078 6.65674 13.498 7.07674 13.498 7.59424V13.3705L17.948 16.0242C18.3918 16.2905 18.538 16.8655 18.273 17.3105C18.0968 17.6042 17.7855 17.768 17.4668 17.768Z" fill="white"/>
</svg>
