<svg width="201" height="65" viewBox="0 0 201 65" fill="none" xmlns="http://www.w3.org/2000/svg">
<path fill-rule="evenodd" clip-rule="evenodd" d="M49.7251 30.6971C49.7251 30.7268 49.7251 30.749 49.7251 30.7787C49.7251 33.4419 48.9498 36.0532 47.5049 38.3084C43.3429 44.6808 35.1395 49.2282 25.1749 49.2282C10.657 49.2209 0 40.0294 0 25.6452C0 11.2683 10.657 2.14368 25.1824 2.14368C35.0793 2.14368 43.6138 6.34249 47.8812 13.6348C49.0929 15.7416 49.7251 18.1303 49.7251 20.5561C49.7251 20.5932 49.7251 20.6378 49.7251 20.6748H37.3822C35.6287 15.8381 31.2108 13.071 25.1824 13.071C17.3251 13.071 12.1397 17.7742 12.1397 25.6526C12.1397 33.6051 17.3326 38.301 25.1824 38.301C31.2108 38.301 35.7039 35.5339 37.4575 30.6971H49.7251Z" fill="white"/>
<path fill-rule="evenodd" clip-rule="evenodd" d="M91.1037 48.3902H79.3253V45.1409C76.6008 47.7596 72.9356 49.2211 69.1349 49.2211C69.0521 49.2211 68.9618 49.2211 68.879 49.2211C59.8326 49.2211 53.2397 42.1662 53.2397 31.1053C53.2397 20.0444 59.8326 12.9896 68.879 12.9896C68.9317 12.9896 68.9919 12.9896 69.0446 12.9896C72.8904 12.9896 76.5857 14.4807 79.3328 17.1364V13.8204H91.1187V48.3902H91.1037ZM79.7467 31.1127C79.7467 26.6172 76.8718 23.9243 72.454 23.9243C68.036 23.9243 65.1611 26.6172 65.1611 31.1127C65.1611 35.6083 68.036 38.3012 72.454 38.3012C76.8718 38.3012 79.7467 35.6009 79.7467 31.1127Z" fill="white"/>
<path fill-rule="evenodd" clip-rule="evenodd" d="M95.5215 13.8277H107.307V17.4256C109.956 14.6066 113.682 12.9968 117.588 12.9968C117.648 12.9968 117.709 12.9968 117.761 12.9968V25.022C116.587 24.7921 115.383 24.6733 114.187 24.6733C111.033 24.6733 108.082 26.3351 107.314 29.3766V48.39H95.5289V13.8277H95.5215Z" fill="white"/>
<path fill-rule="evenodd" clip-rule="evenodd" d="M137.389 13.8944H144.547V24.6808H137.389V32.9746C137.389 36.2239 138.932 38.0933 142.017 38.0933C142.371 38.0933 143.839 37.9523 144.193 37.8856V48.6719C142.304 49.0354 140.369 49.2283 138.443 49.2283C128.907 49.2283 125.611 42.1067 125.611 33.1229V24.6882H121.404V13.8944H125.611V6.91376L137.396 3.45679V13.8944H137.389Z" fill="white"/>
<path fill-rule="evenodd" clip-rule="evenodd" d="M185.015 35.3932V37.6038C182.839 44.1691 175.478 49.2211 165.936 49.2211C154.782 49.2211 146.578 42.1662 146.578 31.1053C146.578 20.0444 154.782 12.9896 165.936 12.9896C176.457 12.9896 184.028 19.2137 185.015 28.3383V32.6261H158.575C159.14 36.4317 161.939 38.7092 165.936 38.7092C168.811 38.7092 171.339 37.6706 172.672 35.3932H185.015ZM159.275 26.4762H172.604C171.415 24.0578 169.24 22.6706 165.943 22.6706C162.85 22.6781 160.464 24.0578 159.275 26.4762Z" fill="white"/>
<path d="M201.008 0H189.222V48.3902H201.008V0Z" fill="white"/>
<path fill-rule="evenodd" clip-rule="evenodd" d="M39.4142 38.9093L25.4231 64.9998L11.4321 38.9093H39.4142Z" fill="white"/>
</svg>
