<svg width="30" height="30" viewBox="0 0 30 30" fill="none" xmlns="http://www.w3.org/2000/svg">
<path d="M14.9365 18.1749C10.624 18.1749 6.98535 18.8796 6.98535 21.5993C6.98535 24.3201 10.6475 25 14.9365 25C19.249 25 22.8877 24.2953 22.8877 21.5757C22.8877 18.8548 19.2255 18.1749 14.9365 18.1749Z" fill="white"/>
<path opacity="0.4" d="M14.9364 15.5838C17.8565 15.5838 20.198 13.2288 20.198 10.2919C20.198 7.35383 17.8565 5 14.9364 5C12.0163 5 9.6748 7.35383 9.6748 10.2919C9.6748 13.2288 12.0163 15.5838 14.9364 15.5838Z" fill="white"/>
<path opacity="0.4" d="M26.3597 11.524C27.1152 8.5522 24.9002 5.88318 22.0797 5.88318C21.773 5.88318 21.4798 5.91695 21.1932 5.97436C21.1552 5.98337 21.1127 6.0025 21.0903 6.03627C21.0645 6.07905 21.0836 6.13646 21.1115 6.17361C21.9588 7.3691 22.4457 8.82462 22.4457 10.3871C22.4457 11.8843 21.9991 13.2801 21.2156 14.4385C21.135 14.5578 21.2067 14.7188 21.3488 14.7435C21.5458 14.7784 21.7473 14.7964 21.9532 14.8021C24.007 14.8561 25.8505 13.5266 26.3597 11.524Z" fill="white"/>
<path d="M28.5118 18.5212C28.1357 17.7152 27.228 17.1625 25.8479 16.8912C25.1965 16.7313 23.4337 16.5062 21.794 16.5366C21.7694 16.54 21.7559 16.5569 21.7537 16.5681C21.7504 16.5839 21.7571 16.6109 21.7895 16.6278C22.5473 17.0049 25.4763 18.645 25.1081 22.1043C25.0924 22.254 25.2122 22.3835 25.3611 22.3609C26.0819 22.2574 27.9365 21.8566 28.5118 20.6082C28.8296 19.9486 28.8296 19.182 28.5118 18.5212Z" fill="white"/>
<path opacity="0.4" d="M8.80586 5.97473C8.52045 5.91619 8.22608 5.88354 7.91941 5.88354C5.09889 5.88354 2.88389 8.55257 3.6405 11.5244C4.14864 13.527 5.99205 14.8565 8.04588 14.8024C8.25183 14.7968 8.45441 14.7777 8.65028 14.7439C8.79243 14.7191 8.86406 14.5582 8.78347 14.4388C7.99999 13.2794 7.55341 11.8846 7.55341 10.3875C7.55341 8.82386 8.04141 7.36834 8.88868 6.17397C8.91554 6.13683 8.93569 6.07942 8.90883 6.03664C8.88644 6.00174 8.84503 5.98373 8.80586 5.97473Z" fill="white"/>
<path d="M4.15194 16.8909C2.7719 17.1622 1.86531 17.7149 1.48924 18.5209C1.17025 19.1817 1.17025 19.9483 1.48924 20.609C2.06454 21.8563 3.91914 22.2582 4.63994 22.3606C4.7888 22.3831 4.90744 22.2548 4.89177 22.104C4.52354 18.6458 7.45262 17.0057 8.21148 16.6286C8.24281 16.6106 8.24953 16.5847 8.24617 16.5678C8.24393 16.5565 8.23162 16.5397 8.207 16.5374C6.56617 16.5059 4.80447 16.731 4.15194 16.8909Z" fill="white"/>
</svg>
