<svg width="98" height="32" viewBox="0 0 98 32" fill="none" xmlns="http://www.w3.org/2000/svg">
<g clip-path="url(#clip0_204_33)">
<path fill-rule="evenodd" clip-rule="evenodd" d="M24.2441 15.1124C24.2441 15.127 24.2441 15.138 24.2441 15.1526C24.2441 16.4637 23.8661 17.7492 23.1616 18.8595C21.1323 21.9967 17.1327 24.2354 12.2743 24.2354C5.19595 24.2318 0 19.7068 0 12.6253C0 5.54746 5.19595 1.05534 12.278 1.05534C17.1033 1.05534 21.2645 3.12245 23.3451 6.71249C23.9358 7.7497 24.2441 8.9257 24.2441 10.1199C24.2441 10.1382 24.2441 10.1601 24.2441 10.1784H18.2261C17.3712 7.7972 15.2172 6.43496 12.278 6.43496C8.44706 6.43496 5.91884 8.75039 5.91884 12.629C5.91884 16.544 8.45073 18.8559 12.278 18.8559C15.2172 18.8559 17.4079 17.4936 18.2628 15.1124H24.2441Z" fill="#1777FB"/>
<path fill-rule="evenodd" clip-rule="evenodd" d="M44.4188 23.8229H38.6761V22.2232C37.3477 23.5124 35.5607 24.2319 33.7077 24.2319C33.6673 24.2319 33.6232 24.2319 33.5829 24.2319C29.1722 24.2319 25.9578 20.7587 25.9578 15.3134C25.9578 9.86803 29.1722 6.39488 33.5829 6.39488C33.6086 6.39488 33.6379 6.39488 33.6636 6.39488C35.5387 6.39488 37.3404 7.12896 38.6798 8.43639V6.80389H44.4261V23.8229H44.4188ZM38.8816 15.317C38.8816 13.1038 37.4798 11.7781 35.3259 11.7781C33.1719 11.7781 31.7702 13.1038 31.7702 15.317C31.7702 17.5302 33.1719 18.856 35.3259 18.856C37.4798 18.856 38.8816 17.5266 38.8816 15.317Z" fill="#1777FB"/>
<path fill-rule="evenodd" clip-rule="evenodd" d="M46.5726 6.8075H52.3188V8.57875C53.6105 7.19096 55.4271 6.39845 57.3313 6.39845C57.3608 6.39845 57.3903 6.39845 57.4157 6.39845V12.3185C56.8436 12.2054 56.2565 12.1469 55.673 12.1469C54.1354 12.1469 52.6967 12.965 52.3224 14.4624V23.8228H46.5763V6.8075H46.5726Z" fill="#1777FB"/>
<path fill-rule="evenodd" clip-rule="evenodd" d="M66.9857 6.84031H70.4756V12.1505H66.9857V16.2336C66.9857 17.8333 67.738 18.7536 69.2425 18.7536C69.4149 18.7536 70.1304 18.6842 70.3032 18.6513V23.9616C69.3822 24.1405 68.4389 24.2355 67.4998 24.2355C62.8502 24.2355 61.2432 20.7294 61.2432 16.3066V12.1542H59.192V6.84031H61.2432V3.40367L66.9894 1.70178V6.84031H66.9857Z" fill="#1777FB"/>
<path fill-rule="evenodd" clip-rule="evenodd" d="M90.2063 17.4243V18.5126C89.1455 21.7448 85.5567 24.2319 80.904 24.2319C75.4659 24.2319 71.4661 20.7587 71.4661 15.3134C71.4661 9.86803 75.4659 6.39488 80.904 6.39488C86.034 6.39488 89.7254 9.45902 90.2063 13.9511V16.0621H77.3152C77.5906 17.9356 78.9554 19.0568 80.904 19.0568C82.306 19.0568 83.5387 18.5455 84.1884 17.4243H90.2063ZM77.6564 13.0344H84.1553C83.5754 11.8438 82.5151 11.1609 80.9076 11.1609C79.3995 11.1646 78.2362 11.8438 77.6564 13.0344Z" fill="#1777FB"/>
<path d="M98.0036 0H92.2574V23.8229H98.0036V0Z" fill="#1777FB"/>
<path fill-rule="evenodd" clip-rule="evenodd" d="M19.2169 19.1553L12.3953 31.9999L5.57385 19.1553H19.2169Z" fill="#1777FB"/>
</g>
<defs>
<clipPath id="clip0_204_33">
<rect width="98" height="32" fill="white"/>
</clipPath>
</defs>
</svg>
