<svg width="21" height="22" viewBox="0 0 21 22" fill="none" xmlns="http://www.w3.org/2000/svg">
<path fill-rule="evenodd" clip-rule="evenodd" d="M1.48995 3.87351C1.80627 3.34875 3.55018 1.44377 4.7929 1.50127C5.16469 1.53311 5.49334 1.75698 5.76037 2.01783H5.7614C6.37351 2.61756 8.12974 4.88094 8.22834 5.35745C8.47175 6.52611 7.07806 7.19978 7.50428 8.37769C8.59089 11.0364 10.4632 12.9086 13.1232 13.994C14.3002 14.4212 14.9739 13.0287 16.1427 13.2711C16.6192 13.3707 18.8839 15.1257 19.4826 15.7388V15.7388C19.7425 16.0048 19.9684 16.3344 19.9992 16.7062C20.0454 18.0155 18.0222 19.7829 17.6278 20.0088C16.6973 20.6753 15.4833 20.663 14.0034 19.975C9.87366 18.2569 3.27391 11.782 1.52384 7.49657C0.854209 6.02496 0.80902 4.8029 1.48995 3.87351Z" stroke="#1777FB" stroke-width="1.5" stroke-linecap="round" stroke-linejoin="round"/>
<path d="M13.0654 1.75C16.7674 2.161 19.6904 5.081 20.1064 8.782" stroke="#1777FB" stroke-width="1.5" stroke-linecap="round" stroke-linejoin="round"/>
<path d="M13.0654 5.29297C14.8354 5.63797 16.2184 7.02097 16.5634 8.79097" stroke="#1777FB" stroke-width="1.5" stroke-linecap="round" stroke-linejoin="round"/>
</svg>
