<svg width="21" height="20" viewBox="0 0 21 20" fill="none" xmlns="http://www.w3.org/2000/svg">
<path d="M10.9941 0C9.01633 0 7.08293 0.58649 5.43844 1.6853C3.79395 2.78412 2.51223 4.3459 1.75535 6.17316C0.998473 8.00042 0.80044 10.0111 1.18629 11.9509C1.57214 13.8907 2.52455 15.6725 3.92308 17.0711C5.3216 18.4696 7.10343 19.422 9.04324 19.8078C10.9831 20.1937 12.9937 19.9957 14.821 19.2388C16.6482 18.4819 18.21 17.2002 19.3088 15.5557C20.4077 13.9112 20.9941 11.9778 20.9941 10C20.9916 7.34861 19.9372 4.80655 18.0624 2.93174C16.1876 1.05693 13.6455 0.00254574 10.9941 0ZM10.9941 18.4615C9.32061 18.4615 7.68466 17.9653 6.29316 17.0355C4.90167 16.1057 3.81714 14.7842 3.1767 13.2381C2.53627 11.6919 2.3687 9.99061 2.69519 8.34923C3.02168 6.70786 3.82757 5.20016 5.01093 4.01679C6.1943 2.83342 7.702 2.02754 9.34338 1.70105C10.9848 1.37456 12.6861 1.54212 14.2322 2.18256C15.7784 2.82299 17.0999 3.90753 18.0297 5.29902C18.9594 6.69051 19.4557 8.32646 19.4557 10C19.4531 12.2434 18.5608 14.3941 16.9745 15.9804C15.3882 17.5667 13.2375 18.459 10.9941 18.4615ZM12.5326 14.6154C12.5326 14.8194 12.4516 15.0151 12.3073 15.1593C12.163 15.3036 11.9674 15.3846 11.7634 15.3846H10.9941C10.7901 15.3846 10.5945 15.3036 10.4502 15.1593C10.306 15.0151 10.2249 14.8194 10.2249 14.6154V10C10.0209 10 9.82524 9.91895 9.68098 9.7747C9.53673 9.63044 9.45568 9.43478 9.45568 9.23077C9.45568 9.02675 9.53673 8.8311 9.68098 8.68684C9.82524 8.54258 10.0209 8.46154 10.2249 8.46154H10.9941C11.1982 8.46154 11.3938 8.54258 11.5381 8.68684C11.6823 8.8311 11.7634 9.02675 11.7634 9.23077V13.8462C11.9674 13.8462 12.163 13.9272 12.3073 14.0715C12.4516 14.2157 12.5326 14.4114 12.5326 14.6154ZM9.64799 5.76923C9.64799 5.54102 9.71566 5.31794 9.84245 5.12819C9.96923 4.93844 10.1494 4.79055 10.3603 4.70321C10.5711 4.61588 10.8031 4.59303 11.0269 4.63755C11.2508 4.68208 11.4564 4.79197 11.6177 4.95334C11.7791 5.11471 11.889 5.3203 11.9335 5.54413C11.978 5.76795 11.9552 5.99995 11.8678 6.21079C11.7805 6.42163 11.6326 6.60183 11.4429 6.72862C11.2531 6.8554 11.03 6.92308 10.8018 6.92308C10.4958 6.92308 10.2023 6.80151 9.98594 6.58512C9.76956 6.36873 9.64799 6.07525 9.64799 5.76923Z" fill="#1777FB"/>
</svg>
