<svg xmlns='http://www.w3.org/2000/svg' xmlns:xlink='http://www.w3.org/1999/xlink'>
	<symbol id="arrow-down" viewBox="0 0 16 9">
		<g>
			<path d="M0.241064 0.245899C0.533264 -0.0521604 0.990508 -0.0792568 1.31272 0.16461L1.40503 0.245899L8 6.97342L14.595 0.245899C14.8872 -0.0521604 15.3444 -0.0792568 15.6666 0.16461L15.7589 0.245899C16.0511 0.543959 16.0777 1.01037 15.8386 1.33904L15.7589 1.43321L8.58198 8.7541C8.28978 9.05216 7.83254 9.07926 7.51033 8.83539L7.41802 8.7541L0.241064 1.43321C-0.0803548 1.10534 -0.0803548 0.573765 0.241064 0.245899Z"/>
		</g>
	</symbol>
	<symbol id="info" viewBox="0 0 22 20">
		<g>
			<path d="M10.9941 0C9.01633 0 7.08293 0.58649 5.43844 1.6853C3.79395 2.78412 2.51223 4.3459 1.75535 6.17316C0.998473 8.00042 0.80044 10.0111 1.18629 11.9509C1.57214 13.8907 2.52455 15.6725 3.92308 17.0711C5.3216 18.4696 7.10343 19.422 9.04324 19.8078C10.9831 20.1937 12.9937 19.9957 14.821 19.2388C16.6482 18.4819 18.21 17.2002 19.3088 15.5557C20.4077 13.9112 20.9941 11.9778 20.9941 10C20.9916 7.34861 19.9372 4.80655 18.0624 2.93174C16.1876 1.05693 13.6455 0.00254574 10.9941 0ZM10.9941 18.4615C9.32061 18.4615 7.68466 17.9653 6.29316 17.0355C4.90167 16.1057 3.81714 14.7842 3.1767 13.2381C2.53627 11.6919 2.3687 9.99061 2.69519 8.34923C3.02168 6.70786 3.82757 5.20016 5.01093 4.01679C6.1943 2.83342 7.702 2.02754 9.34338 1.70105C10.9848 1.37456 12.6861 1.54212 14.2322 2.18256C15.7784 2.82299 17.0999 3.90753 18.0297 5.29902C18.9594 6.69051 19.4557 8.32646 19.4557 10C19.4531 12.2434 18.5608 14.3941 16.9745 15.9804C15.3882 17.5667 13.2375 18.459 10.9941 18.4615ZM12.5326 14.6154C12.5326 14.8194 12.4516 15.0151 12.3073 15.1593C12.163 15.3036 11.9674 15.3846 11.7634 15.3846H10.9941C10.7901 15.3846 10.5945 15.3036 10.4502 15.1593C10.306 15.0151 10.2249 14.8194 10.2249 14.6154V10C10.0209 10 9.82524 9.91895 9.68098 9.7747C9.53673 9.63044 9.45568 9.43478 9.45568 9.23077C9.45568 9.02675 9.53673 8.8311 9.68098 8.68684C9.82524 8.54258 10.0209 8.46154 10.2249 8.46154H10.9941C11.1982 8.46154 11.3938 8.54258 11.5381 8.68684C11.6823 8.8311 11.7634 9.02675 11.7634 9.23077V13.8462C11.9674 13.8462 12.163 13.9272 12.3073 14.0715C12.4516 14.2157 12.5326 14.4114 12.5326 14.6154ZM9.64799 5.76923C9.64799 5.54102 9.71566 5.31794 9.84245 5.12819C9.96923 4.93844 10.1494 4.79055 10.3603 4.70321C10.5711 4.61588 10.8031 4.59303 11.0269 4.63755C11.2508 4.68208 11.4564 4.79197 11.6177 4.95334C11.7791 5.11471 11.889 5.3203 11.9335 5.54413C11.978 5.76795 11.9552 5.99995 11.8678 6.21079C11.7805 6.42163 11.6326 6.60183 11.4429 6.72862C11.2531 6.8554 11.03 6.92308 10.8018 6.92308C10.4958 6.92308 10.2023 6.80151 9.98594 6.58512C9.76956 6.36873 9.64799 6.07525 9.64799 5.76923Z"/>
		</g>
	</symbol>
	<symbol id="calling" fill="none" viewBox="0 0 21 22">
		<g>
			<path fill-rule="evenodd" clip-rule="evenodd" d="M1.48995 3.87351C1.80627 3.34875 3.55018 1.44377 4.7929 1.50127C5.16469 1.53311 5.49334 1.75698 5.76037 2.01783H5.7614C6.37351 2.61756 8.12974 4.88094 8.22834 5.35745C8.47175 6.52611 7.07806 7.19978 7.50428 8.37769C8.59089 11.0364 10.4632 12.9086 13.1232 13.994C14.3002 14.4212 14.9739 13.0287 16.1427 13.2711C16.6192 13.3707 18.8839 15.1257 19.4826 15.7388V15.7388C19.7425 16.0048 19.9684 16.3344 19.9992 16.7062C20.0454 18.0155 18.0222 19.7829 17.6278 20.0088C16.6973 20.6753 15.4833 20.663 14.0034 19.975C9.87366 18.2569 3.27391 11.782 1.52384 7.49657C0.854209 6.02496 0.80902 4.8029 1.48995 3.87351Z" stroke-width="1.5" stroke-linecap="round" stroke-linejoin="round"/>
			<path d="M13.0654 1.75C16.7674 2.161 19.6904 5.081 20.1064 8.782" stroke-width="1.5" stroke-linecap="round" stroke-linejoin="round"/>
			<path d="M13.0654 5.29297C14.8354 5.63797 16.2184 7.02097 16.5634 8.79097" stroke-width="1.5" stroke-linecap="round" stroke-linejoin="round"/>
		</g>
	</symbol>
	<symbol id="location" fill="none" viewBox="0 0 25 24">
		<g>
			<path fill-rule="evenodd" clip-rule="evenodd" d="M4.73901 10.3915C4.75342 6.15089 8.20278 2.7249 12.4434 2.7393C16.6839 2.75371 20.1099 6.20306 20.0955 10.4437V10.5306C20.0434 13.2871 18.5042 15.835 16.6173 17.8263C15.5381 18.9469 14.333 19.939 13.026 20.7828C12.6765 21.0851 12.1581 21.0851 11.8086 20.7828C9.86008 19.5145 8.14995 17.9133 6.7564 16.0523C5.51436 14.4296 4.80918 12.4599 4.73901 10.4176L4.73901 10.3915Z" stroke-width="1.5" stroke-linecap="round" stroke-linejoin="round"/>
			<circle cx="12.4172" cy="10.539" r="2.46087" stroke-width="1.5" stroke-linecap="round" stroke-linejoin="round"/>
		</g>
	</symbol>
	<symbol id="message" fill="none" viewBox="0 0 25 24">
		<g>
			<path d="M17.7678 9.06152L13.5024 12.4958C12.6952 13.1287 11.5636 13.1287 10.7564 12.4958L6.45435 9.06152" stroke-width="1.5" stroke-linecap="round" stroke-linejoin="round"/>
			<path fill-rule="evenodd" clip-rule="evenodd" d="M7.38787 3.5H16.8158C18.1752 3.51525 19.469 4.08993 20.396 5.0902C21.323 6.09048 21.8022 7.42903 21.722 8.79412V15.322C21.8022 16.6871 21.323 18.0256 20.396 19.0259C19.469 20.0262 18.1752 20.6009 16.8158 20.6161H7.38787C4.46796 20.6161 2.5 18.2407 2.5 15.322V8.79412C2.5 5.87545 4.46796 3.5 7.38787 3.5Z" stroke-width="1.5" stroke-linecap="round" stroke-linejoin="round"/>
		</g>
	</symbol>
</svg>
